<mxfile host="app.diagrams.net" modified="2024-05-05T10:43:17.178Z" agent="Mozilla/5.0 (Windows NT 10.0; Win64; x64) AppleWebKit/537.36 (KHTML, like Gecko) Chrome/124.0.0.0 Safari/537.36" etag="G1DqkPblXF5EJd13QTlQ" version="24.3.1" type="github">
  <diagram name="페이지-1" id="Ci4wQIoL33Xv2gpCSMvt">
    <mxGraphModel dx="1014" dy="313" grid="0" gridSize="10" guides="1" tooltips="1" connect="1" arrows="1" fold="1" page="0" pageScale="1" pageWidth="827" pageHeight="1169" math="0" shadow="0">
      <root>
        <mxCell id="0" />
        <mxCell id="1" parent="0" />
        <mxCell id="jPsewTCzB_pXzww3N3l9-15" value="Calsulator" style="swimlane;fontStyle=0;childLayout=stackLayout;horizontal=1;startSize=26;horizontalStack=0;resizeParent=1;resizeParentMax=0;resizeLast=0;collapsible=1;marginBottom=0;align=center;fontSize=14;" vertex="1" parent="1">
          <mxGeometry x="-237" y="443" width="159" height="176" as="geometry">
            <mxRectangle x="-473" y="442" width="57" height="29" as="alternateBounds" />
          </mxGeometry>
        </mxCell>
        <mxCell id="jPsewTCzB_pXzww3N3l9-16" value="sum()" style="text;strokeColor=none;fillColor=none;spacingLeft=4;spacingRight=4;overflow=hidden;rotatable=0;points=[[0,0.5],[1,0.5]];portConstraint=eastwest;fontSize=12;whiteSpace=wrap;html=1;" vertex="1" parent="jPsewTCzB_pXzww3N3l9-15">
          <mxGeometry y="26" width="159" height="30" as="geometry" />
        </mxCell>
        <mxCell id="jPsewTCzB_pXzww3N3l9-17" value="substract()" style="text;strokeColor=none;fillColor=none;spacingLeft=4;spacingRight=4;overflow=hidden;rotatable=0;points=[[0,0.5],[1,0.5]];portConstraint=eastwest;fontSize=12;whiteSpace=wrap;html=1;" vertex="1" parent="jPsewTCzB_pXzww3N3l9-15">
          <mxGeometry y="56" width="159" height="30" as="geometry" />
        </mxCell>
        <mxCell id="jPsewTCzB_pXzww3N3l9-18" value="multiply()" style="text;strokeColor=none;fillColor=none;spacingLeft=4;spacingRight=4;overflow=hidden;rotatable=0;points=[[0,0.5],[1,0.5]];portConstraint=eastwest;fontSize=12;whiteSpace=wrap;html=1;" vertex="1" parent="jPsewTCzB_pXzww3N3l9-15">
          <mxGeometry y="86" width="159" height="30" as="geometry" />
        </mxCell>
        <mxCell id="jPsewTCzB_pXzww3N3l9-21" value="divide()" style="text;strokeColor=none;fillColor=none;spacingLeft=4;spacingRight=4;overflow=hidden;rotatable=0;points=[[0,0.5],[1,0.5]];portConstraint=eastwest;fontSize=12;whiteSpace=wrap;html=1;" vertex="1" parent="jPsewTCzB_pXzww3N3l9-15">
          <mxGeometry y="116" width="159" height="30" as="geometry" />
        </mxCell>
        <mxCell id="jPsewTCzB_pXzww3N3l9-20" value="run()" style="text;strokeColor=none;fillColor=none;spacingLeft=4;spacingRight=4;overflow=hidden;rotatable=0;points=[[0,0.5],[1,0.5]];portConstraint=eastwest;fontSize=12;whiteSpace=wrap;html=1;" vertex="1" parent="jPsewTCzB_pXzww3N3l9-15">
          <mxGeometry y="146" width="159" height="30" as="geometry" />
        </mxCell>
        <mxCell id="jPsewTCzB_pXzww3N3l9-22" value="Calsulator" style="swimlane;fontStyle=0;childLayout=stackLayout;horizontal=1;startSize=26;horizontalStack=0;resizeParent=1;resizeParentMax=0;resizeLast=0;collapsible=1;marginBottom=0;align=center;fontSize=14;" vertex="1" parent="1">
          <mxGeometry x="-359" y="762" width="159" height="146" as="geometry">
            <mxRectangle x="-473" y="442" width="57" height="29" as="alternateBounds" />
          </mxGeometry>
        </mxCell>
        <mxCell id="jPsewTCzB_pXzww3N3l9-23" value="sum()" style="text;strokeColor=none;fillColor=none;spacingLeft=4;spacingRight=4;overflow=hidden;rotatable=0;points=[[0,0.5],[1,0.5]];portConstraint=eastwest;fontSize=12;whiteSpace=wrap;html=1;" vertex="1" parent="jPsewTCzB_pXzww3N3l9-22">
          <mxGeometry y="26" width="159" height="30" as="geometry" />
        </mxCell>
        <mxCell id="jPsewTCzB_pXzww3N3l9-24" value="substract()" style="text;strokeColor=none;fillColor=none;spacingLeft=4;spacingRight=4;overflow=hidden;rotatable=0;points=[[0,0.5],[1,0.5]];portConstraint=eastwest;fontSize=12;whiteSpace=wrap;html=1;" vertex="1" parent="jPsewTCzB_pXzww3N3l9-22">
          <mxGeometry y="56" width="159" height="30" as="geometry" />
        </mxCell>
        <mxCell id="jPsewTCzB_pXzww3N3l9-25" value="multiply()" style="text;strokeColor=none;fillColor=none;spacingLeft=4;spacingRight=4;overflow=hidden;rotatable=0;points=[[0,0.5],[1,0.5]];portConstraint=eastwest;fontSize=12;whiteSpace=wrap;html=1;" vertex="1" parent="jPsewTCzB_pXzww3N3l9-22">
          <mxGeometry y="86" width="159" height="30" as="geometry" />
        </mxCell>
        <mxCell id="jPsewTCzB_pXzww3N3l9-26" value="divide()" style="text;strokeColor=none;fillColor=none;spacingLeft=4;spacingRight=4;overflow=hidden;rotatable=0;points=[[0,0.5],[1,0.5]];portConstraint=eastwest;fontSize=12;whiteSpace=wrap;html=1;" vertex="1" parent="jPsewTCzB_pXzww3N3l9-22">
          <mxGeometry y="116" width="159" height="30" as="geometry" />
        </mxCell>
        <mxCell id="jPsewTCzB_pXzww3N3l9-27" value="Human" style="swimlane;fontStyle=0;childLayout=stackLayout;horizontal=1;startSize=26;horizontalStack=0;resizeParent=1;resizeParentMax=0;resizeLast=0;collapsible=1;marginBottom=0;align=center;fontSize=14;" vertex="1" parent="1">
          <mxGeometry x="-114" y="762" width="159" height="86" as="geometry">
            <mxRectangle x="-473" y="442" width="57" height="29" as="alternateBounds" />
          </mxGeometry>
        </mxCell>
        <mxCell id="jPsewTCzB_pXzww3N3l9-29" value="walk()" style="text;strokeColor=none;fillColor=none;spacingLeft=4;spacingRight=4;overflow=hidden;rotatable=0;points=[[0,0.5],[1,0.5]];portConstraint=eastwest;fontSize=12;whiteSpace=wrap;html=1;" vertex="1" parent="jPsewTCzB_pXzww3N3l9-27">
          <mxGeometry y="26" width="159" height="30" as="geometry" />
        </mxCell>
        <mxCell id="jPsewTCzB_pXzww3N3l9-31" value="run()" style="text;strokeColor=none;fillColor=none;spacingLeft=4;spacingRight=4;overflow=hidden;rotatable=0;points=[[0,0.5],[1,0.5]];portConstraint=eastwest;fontSize=12;whiteSpace=wrap;html=1;" vertex="1" parent="jPsewTCzB_pXzww3N3l9-27">
          <mxGeometry y="56" width="159" height="30" as="geometry" />
        </mxCell>
        <mxCell id="jPsewTCzB_pXzww3N3l9-32" value="" style="html=1;shadow=0;dashed=0;align=center;verticalAlign=middle;shape=mxgraph.arrows2.arrow;dy=0.6;dx=40;direction=south;notch=0;" vertex="1" parent="1">
          <mxGeometry x="-175" y="650" width="27" height="77" as="geometry" />
        </mxCell>
      </root>
    </mxGraphModel>
  </diagram>
</mxfile>
